<svg id="Capa_1" enable-background="new 0 0 511.987 511.987" height="512" viewBox="0 0 511.987 511.987" width="512" xmlns="http://www.w3.org/2000/svg"><path d="m229.553 333.415c0-60.628-49.149-109.777-109.777-109.777s-109.776 49.149-109.776 109.777c0 21.742 6.321 42.008 17.225 59.06-5.009 6.144-8.013 13.987-8.013 22.532 0 19.707 15.976 35.683 35.683 35.683 11.453 0 21.646-5.397 28.175-13.785.45.16.902.317 1.355.471-.219 1.597-.332 3.227-.332 4.884 0 19.707 15.976 35.683 35.683 35.683s35.683-15.976 35.683-35.683c0-1.657-.113-3.287-.332-4.884.453-.154.905-.311 1.355-.471 6.529 8.389 16.722 13.785 28.175 13.785 19.707 0 35.683-15.976 35.683-35.683 0-8.545-3.004-16.388-8.013-22.532 10.905-17.052 17.226-37.318 17.226-59.06z" fill="#ff7d97"/><ellipse cx="119.777" cy="104.059" fill="#fff2a0" rx="70.015" ry="70.015" transform="matrix(.082 -.997 .997 .082 6.297 214.952)"/><ellipse cx="119.777" cy="104.059" fill="#ffea60" rx="27.156" ry="27.156" transform="matrix(.159 -.987 .987 .159 -1.987 205.787)"/><ellipse cx="119.777" cy="290.824" fill="#faf7f5" rx="67.185" ry="67.185" transform="matrix(.995 -.097 .097 .995 -27.716 13.028)"/><path d="m502.021 333.415c0-60.628-49.149-109.777-109.777-109.777s-109.777 49.149-109.777 109.777c0 21.742 6.321 42.008 17.225 59.06-5.009 6.144-8.013 13.987-8.013 22.532 0 19.707 15.976 35.683 35.683 35.683 11.454 0 21.646-5.397 28.175-13.785.45.16.902.317 1.355.471-.219 1.597-.332 3.227-.332 4.884 0 19.707 15.976 35.683 35.683 35.683s35.683-15.976 35.683-35.683c0-1.657-.113-3.287-.332-4.884.453-.154.905-.311 1.355-.471 6.529 8.389 16.722 13.785 28.175 13.785 19.707 0 35.683-15.976 35.683-35.683 0-8.545-3.004-16.388-8.013-22.532 10.906-17.052 17.227-37.318 17.227-59.06z" fill="#ff7d97"/><ellipse cx="392.244" cy="104.059" fill="#fff2a0" rx="70.015" ry="70.015" transform="matrix(.071 -.998 .998 .071 260.641 487.94)"/><ellipse cx="392.244" cy="104.059" fill="#ffea60" rx="27.156" ry="27.156" transform="matrix(.16 -.987 .987 .16 226.698 474.57)"/><ellipse cx="392.244" cy="290.824" fill="#faf7f5" rx="67.185" ry="67.185" transform="matrix(.995 -.099 .099 .995 -26.748 40.066)"/><path d="m502 342.263c-4.132 0-7.884-2.637-9.351-6.482-1.504-3.942-.269-8.585 3.007-11.252 3.243-2.64 7.887-2.993 11.481-.845 3.586 2.144 5.476 6.435 4.663 10.529-.916 4.613-5.093 8.05-9.8 8.05z"/><path d="m496.664 392.128c1.792-3.181 3.44-6.446 4.927-9.761 2.26-5.04.006-10.957-5.033-13.217-5.041-2.26-10.957-.005-13.217 5.033-1.994 4.449-4.34 8.791-6.971 12.904-2.327 3.639-2.055 8.36.675 11.707 3.77 4.623 5.763 10.229 5.763 16.212 0 14.161-11.521 25.683-25.683 25.683-7.979 0-15.373-3.618-20.283-9.928-2.649-3.403-7.183-4.725-11.243-3.279-.408.146-.817.287-1.228.427-4.531 1.543-7.334 6.08-6.684 10.823.159 1.16.239 2.347.239 3.526 0 14.162-11.521 25.684-25.683 25.684-14.161 0-25.683-11.522-25.683-25.684 0-1.18.08-2.366.239-3.526.65-4.743-2.152-9.28-6.684-10.823-.41-.14-.82-.281-1.228-.427-4.061-1.445-8.595-.122-11.243 3.279-4.91 6.31-12.304 9.928-20.283 9.928-14.162 0-25.684-11.522-25.684-25.683 0-5.981 1.993-11.588 5.764-16.212 2.73-3.347 3.002-8.068.675-11.707-10.238-16.01-15.65-34.569-15.65-53.673 0-26.305 10.232-50.265 26.925-68.109-2.807 7.991-4.334 16.579-4.334 25.517 0 42.561 34.625 77.186 77.186 77.186s77.186-34.625 77.186-77.186c0-8.964-1.536-17.576-4.359-25.586 7.286 7.757 13.391 16.738 17.955 26.714 2.299 5.023 8.233 7.229 13.254 4.934 5.022-2.298 7.231-8.232 4.934-13.254-18.057-39.467-56.205-65.97-98.97-69.573v-30.606c39.418-4.936 70.015-38.659 70.015-79.393 0-44.121-35.895-80.016-80.015-80.016s-80.015 35.895-80.015 80.016c0 40.734 30.597 74.457 70.015 79.393v30.599c-61.384 5.097-109.776 56.685-109.776 119.364 0 20.685 5.29 40.845 15.355 58.714-3.994 6.913-6.143 14.824-6.143 22.878 0 25.189 20.493 45.683 45.684 45.683 7.515 0 14.735-1.803 21.162-5.163 5.698 18.74 23.142 32.416 43.719 32.416s38.02-13.676 43.719-32.416c6.427 3.36 13.648 5.163 21.162 5.163 25.19 0 45.683-20.493 45.683-45.683 0-8.054-2.15-15.965-6.144-22.878zm-104.42-44.119c-31.532 0-57.186-25.653-57.186-57.186 0-31.408 25.451-56.982 56.811-57.184.125-.001.249-.001.374-.001 31.532 0 57.186 25.653 57.186 57.186s-25.653 57.185-57.185 57.185zm-60.015-243.949c0-33.093 26.923-60.016 60.015-60.016s60.015 26.923 60.015 60.016c0 33.092-26.923 60.015-60.015 60.015s-60.015-26.923-60.015-60.015z"/><path d="m392.244 141.215c-20.488 0-37.156-16.668-37.156-37.155 0-20.488 16.668-37.156 37.156-37.156s37.156 16.668 37.156 37.156c0 20.487-16.668 37.155-37.156 37.155zm0-54.311c-9.46 0-17.156 7.696-17.156 17.156 0 9.459 7.696 17.155 17.156 17.155s17.156-7.696 17.156-17.155c0-9.46-7.696-17.156-17.156-17.156z"/><path d="m239.553 333.415c0-62.679-48.392-114.266-109.777-119.364v-30.599c39.418-4.936 70.015-38.658 70.015-79.393 0-44.121-35.894-80.016-80.015-80.016-44.12 0-80.015 35.895-80.015 80.016 0 40.734 30.597 74.457 70.015 79.393v30.599c-61.384 5.098-109.776 56.686-109.776 119.364 0 20.683 5.291 40.844 15.356 58.714-3.994 6.913-6.144 14.824-6.144 22.878 0 25.189 20.493 45.683 45.683 45.683 7.515 0 14.736-1.803 21.163-5.163 5.698 18.74 23.141 32.416 43.718 32.416s38.021-13.676 43.719-32.416c6.427 3.36 13.648 5.163 21.163 5.163 25.19 0 45.683-20.493 45.683-45.683 0-8.054-2.149-15.965-6.143-22.878 10.064-17.87 15.355-38.031 15.355-58.714zm-62.591-42.591c0 31.532-25.653 57.186-57.186 57.186-31.532 0-57.185-25.653-57.185-57.186 0-31.408 25.451-56.982 56.811-57.184.125-.001.249-.001.374-.001s.249.001.374.001c31.361.201 56.812 25.776 56.812 57.184zm-117.2-186.764c0-33.093 26.922-60.016 60.015-60.016s60.015 26.923 60.015 60.016c0 33.092-26.923 60.015-60.015 60.015s-60.015-26.923-60.015-60.015zm144.141 283.028c-2.327 3.639-2.055 8.36.675 11.707 3.77 4.624 5.763 10.23 5.763 16.212 0 14.161-11.521 25.683-25.683 25.683-7.98 0-15.373-3.618-20.283-9.927-2.648-3.403-7.179-4.727-11.24-3.281-.409.146-.819.287-1.23.428-4.531 1.543-7.333 6.08-6.684 10.823.159 1.16.239 2.347.239 3.526 0 14.162-11.521 25.684-25.683 25.684s-25.683-11.522-25.683-25.684c0-1.18.08-2.366.24-3.526.649-4.743-2.153-9.28-6.684-10.823-.411-.14-.819-.281-1.227-.427-1.098-.391-2.229-.579-3.35-.579-3.024 0-5.96 1.376-7.893 3.858-4.911 6.31-12.304 9.928-20.284 9.928-14.162 0-25.683-11.522-25.683-25.683 0-5.981 1.993-11.588 5.763-16.212 2.729-3.347 3.001-8.068.675-11.707-10.239-16.011-15.651-34.571-15.651-53.673 0-26.305 10.233-50.266 26.926-68.11-2.807 7.991-4.335 16.58-4.335 25.518 0 42.561 34.625 77.186 77.185 77.186s77.186-34.625 77.186-77.186c0-8.938-1.528-17.527-4.335-25.518 16.693 17.844 26.926 41.804 26.926 68.11 0 19.102-5.411 37.662-15.65 53.673z"/><path d="m119.776 141.215c-20.488 0-37.156-16.668-37.156-37.155 0-20.488 16.668-37.156 37.156-37.156s37.156 16.668 37.156 37.156c.001 20.487-16.668 37.155-37.156 37.155zm0-54.311c-9.46 0-17.156 7.696-17.156 17.156 0 9.459 7.696 17.155 17.156 17.155s17.156-7.696 17.156-17.155c.001-9.46-7.696-17.156-17.156-17.156z"/></svg>