<svg id="Capa_1" enable-background="new 0 0 512 512" height="512" viewBox="0 0 512 512" width="512" xmlns="http://www.w3.org/2000/svg"><path d="m367.921 261.224c-5.387-24.976-20.3-51.004-41.991-73.291-28.78-29.571-63.427-46.653-95.057-46.867-22.538-.134-42.966 8.335-59.176 24.545-7.275 7.275-13.504 15.475-18.514 24.37-5.208 9.249-14.46 15.505-24.748 16.734-34.867 4.164-62.744 18.94-93.213 49.41-26.08 26.08-38.272 62.071-34.331 101.343 3.551 35.382 20.327 71.578 46.026 99.307 31.283 33.755 75.409 54.391 118.035 55.2.91.018 1.812.026 2.717.026 34.236 0 64.694-12.384 88.218-35.907 29.04-29.04 45.091-59.446 49.072-92.956 1.222-10.287 7.303-19.409 16.267-24.401h.001c8.856-4.933 17.031-11.072 24.299-18.246 21.302-21.028 29.045-48.437 22.395-79.267z" fill="#ffd845"/><path d="m164.954 511.974c.91.018 1.812.026 2.717.026 34.236 0 64.694-12.384 88.218-35.907 29.04-29.04 45.091-59.446 49.072-92.956 1.222-10.287 7.303-19.409 16.267-24.401h.001c8.856-4.933 17.031-11.072 24.299-18.246 21.301-21.026 29.044-48.436 22.394-79.266-5.387-24.976-20.3-51.004-41.991-73.291-.308-.316-.62-.623-.929-.936l-274.009 274.009c30.973 31.236 73.15 50.193 113.961 50.968z" fill="#ffb454"/><path d="m443.558 110.865-42.589-42.589c-2.813-2.813-6.628-4.394-10.606-4.394s-7.793 1.581-10.606 4.394l-196.093 196.093c-5.858 5.858-5.858 15.355 0 21.213l42.588 42.588c2.929 2.929 6.768 4.394 10.606 4.394 3.839 0 7.678-1.464 10.606-4.394l196.092-196.092c2.813-2.813 4.394-6.628 4.394-10.606s-1.579-7.794-4.392-10.607z" fill="#b56d3c"/><path d="m226.253 328.17c2.929 2.929 6.768 4.394 10.606 4.394 3.839 0 7.678-1.464 10.606-4.394l196.092-196.092c2.813-2.813 4.394-6.628 4.394-10.606s-1.581-7.793-4.394-10.606l-21.212-21.212-217.304 217.304z" fill="#8d5c4d"/><path d="m390.362 93.883c-3.839 0-7.678-1.464-10.606-4.394l-23.28-23.28c-5.858-5.858-5.858-15.355 0-21.213 5.857-5.858 15.355-5.858 21.213 0l23.28 23.28c5.858 5.858 5.858 15.355 0 21.213-2.929 2.93-6.768 4.394-10.607 4.394z" fill="#595959"/><path d="m430.323 53.923c-3.839 0-7.678-1.464-10.606-4.394l-23.28-23.28c-5.858-5.858-5.858-15.355 0-21.213 5.857-5.858 15.355-5.858 21.213 0l23.28 23.28c5.858 5.858 5.858 15.355 0 21.213-2.93 2.929-6.768 4.394-10.607 4.394z" fill="#595959"/><path d="m455.946 159.467c-3.839 0-7.678-1.464-10.606-4.393l-23.28-23.28c-5.858-5.858-5.858-15.355 0-21.213s15.356-5.858 21.213 0l23.28 23.28c5.858 5.858 5.858 15.355 0 21.213-2.929 2.928-6.768 4.393-10.607 4.393z" fill="#2e2e2e"/><path d="m495.907 119.506c-3.839 0-7.678-1.464-10.606-4.394l-23.28-23.28c-5.858-5.858-5.858-15.355 0-21.213 5.857-5.858 15.355-5.858 21.213 0l23.28 23.28c5.858 5.858 5.858 15.355 0 21.213-2.93 2.93-6.769 4.394-10.607 4.394z" fill="#2e2e2e"/><path d="m507.44 46.983-42.589-42.589c-5.857-5.858-15.355-5.858-21.213 0l-74.489 74.489 63.801 63.802 74.49-74.49c5.858-5.857 5.858-15.355 0-21.212z" fill="#818181"/><path d="m486.228 25.77-85.096 85.096 31.818 31.819 74.49-74.49c5.858-5.858 5.858-15.355 0-21.213z" fill="#6e6e6e"/><path d="m148.147 414.056c-3.839 0-7.677-1.464-10.606-4.394l-35.355-35.355c-5.858-5.858-5.858-15.355 0-21.213s15.355-5.857 21.213 0l35.354 35.355c5.858 5.858 5.858 15.355 0 21.213-2.928 2.929-6.768 4.394-10.606 4.394z" fill="#818181"/><path d="m137.54 409.662c2.929 2.929 6.767 4.394 10.606 4.394 3.838 0 7.678-1.465 10.606-4.394 5.858-5.857 5.858-15.355 0-21.213l-17.602-17.602-21.213 21.213z" fill="#6e6e6e"/><circle cx="215.572" cy="296.276" fill="#595959" r="38.584"/><path d="m242.854 323.558c15.042-15.042 15.065-39.414.074-54.488l-54.562 54.562c15.074 14.992 39.446 14.969 54.488-.074z" fill="#2e2e2e"/><path d="m215.572 349.834c-13.722 0-27.443-5.223-37.889-15.669-20.893-20.892-20.893-54.886 0-75.778 20.892-20.893 54.887-20.893 75.778 0 20.893 20.892 20.893 54.886 0 75.778-10.446 10.446-24.168 15.669-37.889 15.669zm0-77.131c-6.039 0-12.079 2.299-16.676 6.896-9.195 9.195-9.195 24.157 0 33.352s24.157 9.195 33.352 0 9.195-24.157 0-33.352c-4.598-4.597-10.637-6.896-16.676-6.896z" fill="#818181"/><path d="m215.572 349.834c13.722 0 27.443-5.223 37.889-15.669 20.867-20.867 20.89-54.802.074-75.701l-21.215 21.215c9.119 9.202 9.098 24.103-.072 33.273s-24.071 9.191-33.273.072l-21.215 21.215c10.436 10.395 24.123 15.595 37.812 15.595z" fill="#6e6e6e"/></svg>