<svg id="Layer_1" enable-background="new 0 0 256 256" height="512" viewBox="0 0 256 256" width="512" xmlns="http://www.w3.org/2000/svg"><path d="m115.672 134.651c6.967 6.967-.71 25.94-17.147 42.377s-35.41 24.114-42.377 17.147c16.437 16.437 43.087 16.437 59.524 0 16.437-16.438 16.437-43.087 0-59.524z" fill="#d3ba2a"/><path d="m73.296 151.798c16.437-16.437 35.41-24.114 42.377-17.147-16.437-16.437-43.087-16.437-59.524 0s-16.437 43.087 0 59.524c-6.967-6.968.71-25.94 17.147-42.377z" fill="#ede49d"/><ellipse cx="85.91" cy="164.412" fill="#eee045" rx="42.09" ry="17.84" transform="matrix(.707 -.707 .707 .707 -91.095 108.903)"/><path d="m85.134 173.685c-.676-1.798-9.726-13.207-7.269-23.375l8.045-27.988-11.54 23.026c-3.91 7.801-2.385 17.23 3.786 23.4 4.789 4.789 6.868 11.655 5.54 18.296l-3.805 19.023c.05.007.1.012.149.019-.005-.004 2.292-5.224 4.481-10.197 3.096-7.036 3.319-15.008.613-22.204z" fill="#ef7f72"/><path d="m92.078 158.671-.3-.3c-3.814-3.814-5.949-8.99-5.933-14.384l.064-21.665-4.055 18.678c-1.07 4.926-.679 10.074 1.211 14.747 3.076 7.606 8.374 13.872 7.692 25.529-.093 1.588-.726 4.066-1.416 5.499l-9.301 19.31 14.57-21.855c5.355-8.034 4.296-18.731-2.532-25.559z" fill="#e8383b"/><path d="m90.756 181.276c.682-11.657-4.615-17.923-7.692-25.529-1.89-4.673-2.281-9.821-1.211-14.747l4.057-18.677-8.045 27.988c-2.457 10.168 6.593 21.577 7.269 23.375 2.705 7.196 2.483 15.168-.614 22.203-2.189 4.973-4.486 10.193-4.481 10.197l9.301-19.31c.691-1.434 1.323-3.912 1.416-5.5z" fill="#e95947"/><path d="m80.04 209.085c-.136 0-.272-.009-.409-.028l-.178-.023c-.813-.12-1.542-.568-2.016-1.241s-.651-1.509-.489-2.316l3.805-19.023c1.134-5.671-.63-11.498-4.719-15.586-7.098-7.097-8.845-17.893-4.347-26.865l11.541-23.025c.623-1.245 2.022-1.896 3.377-1.574 1.354.323 2.309 1.535 2.305 2.927l-.064 21.665c-.014 4.562 1.829 9.029 5.054 12.254l.3.3c7.812 7.812 9.034 20.153 2.906 29.345l-14.57 21.855c-.561.841-1.503 1.335-2.496 1.335zm2.832-74.006-5.821 11.613c-3.337 6.658-2.04 14.668 3.226 19.934 5.511 5.511 7.888 13.363 6.359 21.006l-.899 4.5 6.377-9.565c4.547-6.82 3.641-15.978-2.156-21.774l-.3-.3c-4.347-4.346-6.829-10.365-6.812-16.514zm-8.503 10.269h.01z" fill="#1c2d6b"/><path d="m85.91 209.502c-24.862 0-45.09-20.227-45.09-45.089 0-24.863 20.228-45.09 45.09-45.09s45.09 20.227 45.09 45.09c0 24.862-20.228 45.089-45.09 45.089zm0-84.179c-21.555 0-39.09 17.536-39.09 39.09s17.535 39.089 39.09 39.089 39.09-17.536 39.09-39.089c0-21.555-17.535-39.09-39.09-39.09z" fill="#1c2d6b"/><path d="m199.851 134.651c6.967 6.967-.71 25.94-17.147 42.377s-35.41 24.114-42.377 17.147c16.437 16.437 43.087 16.437 59.524 0 16.437-16.438 16.437-43.087 0-59.524z" fill="#4b67b0"/><path d="m157.475 151.798c16.437-16.437 35.41-24.114 42.377-17.147-16.437-16.437-43.087-16.437-59.524 0s-16.437 43.087 0 59.524c-6.967-6.968.71-25.94 17.147-42.377z" fill="#89aadb"/><ellipse cx="170.09" cy="164.412" fill="#6287c5" rx="42.09" ry="17.84" transform="matrix(.707 -.707 .707 .707 -66.439 168.427)"/><path d="m169.314 173.685c-.676-1.798-9.726-13.207-7.269-23.375l8.045-27.988-11.541 23.025c-3.91 7.801-2.385 17.23 3.786 23.4 4.789 4.789 6.868 11.655 5.54 18.296l-3.805 19.023c.05.007.1.012.149.019-.005-.004 2.292-5.224 4.481-10.197 3.097-7.035 3.319-15.007.614-22.203z" fill="#a4d4a0"/><path d="m176.258 158.671-.3-.3c-3.814-3.814-5.949-8.99-5.933-14.384l.064-21.665-4.056 18.678c-1.07 4.926-.679 10.074 1.211 14.747 3.076 7.606 8.374 13.872 7.692 25.529-.093 1.588-.726 4.066-1.416 5.499l-9.301 19.31 14.57-21.855c5.356-8.034 4.296-18.731-2.531-25.559z" fill="#419b46"/><path d="m174.935 181.276c.682-11.657-4.615-17.923-7.692-25.529-1.89-4.673-2.281-9.821-1.211-14.747l4.057-18.677-8.045 27.988c-2.457 10.168 6.593 21.577 7.269 23.375 2.705 7.196 2.483 15.168-.614 22.203-2.189 4.973-4.486 10.193-4.481 10.197l9.301-19.31c.691-1.434 1.324-3.912 1.416-5.5z" fill="#65bc49"/><path d="m164.22 209.085c-.136 0-.272-.009-.409-.028l-.178-.023c-.813-.12-1.542-.568-2.016-1.241s-.65-1.509-.489-2.316l3.805-19.023c1.134-5.67-.631-11.497-4.72-15.586-7.097-7.097-8.843-17.894-4.346-26.865l11.541-23.025c.624-1.245 2.021-1.896 3.377-1.574 1.354.323 2.309 1.535 2.305 2.927l-.064 21.665c-.014 4.562 1.828 9.028 5.054 12.254l.3.3c7.812 7.812 9.033 20.153 2.906 29.345l-14.57 21.855c-.562.841-1.503 1.335-2.496 1.335zm2.832-74.006-5.821 11.613c-3.337 6.657-2.041 14.668 3.225 19.935 5.512 5.511 7.889 13.363 6.36 21.005l-.899 4.5 6.377-9.565c4.546-6.82 3.64-15.978-2.156-21.774l-.3-.3c-4.348-4.347-6.83-10.367-6.812-16.514zm-8.503 10.269h.01z" fill="#1c2d6b"/><path d="m170.09 209.502c-24.862 0-45.09-20.227-45.09-45.089 0-24.863 20.228-45.09 45.09-45.09s45.09 20.227 45.09 45.09c0 24.862-20.228 45.089-45.09 45.089zm0-84.179c-21.555 0-39.09 17.536-39.09 39.09s17.535 39.089 39.09 39.089 39.09-17.536 39.09-39.089c0-21.555-17.535-39.09-39.09-39.09z" fill="#1c2d6b"/><path d="m157.762 61.826c6.967 6.967-.71 25.94-17.147 42.377s-35.41 24.114-42.377 17.147c16.437 16.437 43.087 16.437 59.524 0 16.437-16.438 16.437-43.087 0-59.524z" fill="#419b46"/><path d="m115.385 78.973c16.437-16.437 35.41-24.114 42.377-17.147-16.437-16.437-43.087-16.437-59.524 0s-16.437 43.087 0 59.524c-6.967-6.968.71-25.94 17.147-42.377z" fill="#a4d4a0"/><ellipse cx="128" cy="91.587" fill="#65bc49" rx="42.09" ry="17.84" transform="matrix(.707 -.707 .707 .707 -27.272 117.335)"/><path d="m127.224 100.86c-.676-1.798-9.726-13.207-7.269-23.375l8.045-27.987-11.541 23.025c-3.91 7.801-2.385 17.23 3.786 23.4 4.789 4.789 6.868 11.655 5.54 18.296l-3.805 19.023c.05.007.1.012.149.019-.005-.004 2.292-5.224 4.481-10.197 3.097-7.036 3.319-15.008.614-22.204z" fill="#ede49d"/><path d="m134.168 85.846-.3-.3c-3.814-3.814-5.949-8.99-5.933-14.384l.065-21.664-4.057 18.677c-1.07 4.926-.679 10.074 1.211 14.747 3.076 7.606 8.374 13.872 7.692 25.529-.093 1.588-.726 4.066-1.416 5.499l-9.301 19.31 14.57-21.855c5.356-8.034 4.297-18.731-2.531-25.559z" fill="#d3ba2a"/><path d="m132.846 108.451c.682-11.657-4.615-17.923-7.692-25.529-1.89-4.673-2.281-9.821-1.211-14.747l4.057-18.677-8.045 27.988c-2.457 10.168 6.593 21.577 7.269 23.375 2.705 7.196 2.483 15.168-.614 22.203-2.189 4.973-4.486 10.193-4.481 10.197l9.301-19.31c.69-1.434 1.323-3.912 1.416-5.5z" fill="#eee045"/><g fill="#1c2d6b"><path d="m122.13 136.261c-.136 0-.272-.009-.409-.028l-.149-.019c-.819-.112-1.557-.559-2.036-1.233s-.66-1.516-.497-2.328l3.805-19.023c1.134-5.671-.63-11.498-4.719-15.585-7.098-7.097-8.845-17.894-4.347-26.866l11.541-23.024c.623-1.245 2.022-1.896 3.377-1.574 1.354.323 2.309 1.535 2.305 2.927l-.064 21.665c-.014 4.562 1.828 9.027 5.054 12.253l.3.3c7.812 7.811 9.034 20.152 2.906 29.345l-14.57 21.855c-.563.841-1.504 1.335-2.497 1.335zm-2.989-62.394c-3.337 6.658-2.041 14.669 3.226 19.934 5.511 5.511 7.888 13.363 6.359 21.006l-.899 4.5 6.377-9.566c4.547-6.821 3.64-15.979-2.156-21.774l-.3-.3c-4.348-4.347-6.83-10.366-6.812-16.514l.026-8.9z"/><path d="m128 136.677c-24.862 0-45.09-20.227-45.09-45.09 0-24.862 20.228-45.089 45.09-45.089s45.09 20.227 45.09 45.089c0 24.863-20.228 45.09-45.09 45.09zm0-84.179c-21.555 0-39.09 17.536-39.09 39.089 0 21.554 17.535 39.09 39.09 39.09s39.09-17.536 39.09-39.09c0-21.553-17.535-39.089-39.09-39.089z"/></g></svg>